<?xml version="1.0" encoding="UTF-8" standalone="no"?>
<svg
   xmlns:dc="http://purl.org/dc/elements/1.1/"
   xmlns:cc="http://creativecommons.org/ns#"
   xmlns:rdf="http://www.w3.org/1999/02/22-rdf-syntax-ns#"
   xmlns:svg="http://www.w3.org/2000/svg"
   xmlns="http://www.w3.org/2000/svg"
   xmlns:sodipodi="http://sodipodi.sourceforge.net/DTD/sodipodi-0.dtd"
   xmlns:inkscape="http://www.inkscape.org/namespaces/inkscape"
   width="17.570498mm"
   height="15.677176mm"
   viewBox="0 0 17.570498 15.677176"
   version="1.1"
   id="svg8037"
   inkscape:version="1.0.1 (1.0.1+r73)"
   sodipodi:docname="design_14.svg">
  <defs
     id="defs8031" />
  <sodipodi:namedview
     id="base"
     pagecolor="#ffffff"
     bordercolor="#666666"
     borderopacity="1.0"
     inkscape:pageopacity="0.0"
     inkscape:pageshadow="2"
     inkscape:zoom="1.33"
     inkscape:cx="15.107773"
     inkscape:cy="29.879741"
     inkscape:document-units="mm"
     inkscape:current-layer="layer1"
     inkscape:document-rotation="0"
     showgrid="false"
     fit-margin-top="1"
     fit-margin-right="1"
     fit-margin-bottom="1"
     fit-margin-left="1"
     inkscape:window-width="1853"
     inkscape:window-height="1025"
     inkscape:window-x="67"
     inkscape:window-y="27"
     inkscape:window-maximized="1" />
  <metadata
     id="metadata8034">
    <rdf:RDF>
      <cc:Work
         rdf:about="">
        <dc:format>image/svg+xml</dc:format>
        <dc:type
           rdf:resource="http://purl.org/dc/dcmitype/StillImage" />
        <dc:title></dc:title>
      </cc:Work>
    </rdf:RDF>
  </metadata>
  <g
     inkscape:label="Capa 1"
     inkscape:groupmode="layer"
     id="layer1"
     transform="translate(-101.83608,-68.644442)">
    <g
       id="g12240"
       transform="matrix(0.35277777,0,0,-0.35277777,-2.8381019,159.76334)">
      <g
         id="g2364"
         transform="translate(302.1213,237.0627)">
        <path
           d="m 0,0 19.542,8.128 c 0.555,0.23 1.178,0.23 1.732,0 l 10.137,-4.28 c 0.452,-0.188 0.452,-0.828 0,-1.017 L 11.822,-5.315 c -0.555,-0.232 -1.181,-0.231 -1.736,0.002 L -0.001,-1.016 C -0.453,-0.827 -0.452,-0.187 0,0"
           style="fill:#dadada;fill-opacity:1;fill-rule:nonzero;stroke:none"
           id="path2366" />
      </g>
      <g
         id="g2368"
         transform="translate(302.2234,236.8181)">
        <path
           d="m 0,0 c -0.164,-0.068 -0.176,-0.219 -0.176,-0.263 0,-0.045 0.012,-0.196 0.175,-0.264 l 10.089,-4.298 c 0.484,-0.202 1.042,-0.203 1.53,-10e-4 l 19.59,8.147 c 0.162,0.068 0.174,0.219 0.174,0.263 0,0.044 -0.012,0.195 -0.174,0.263 l -10.14,4.281 c -0.49,0.205 -1.034,0.204 -1.526,-10e-4 z m 10.854,-5.508 c -0.332,0 -0.664,0.065 -0.973,0.195 l -10.089,4.298 c -0.307,0.128 -0.499,0.417 -0.499,0.752 0,0.335 0.193,0.624 0.503,0.753 l 19.542,8.128 c 0.625,0.258 1.312,0.258 1.935,0 l 10.14,-4.281 c 0.307,-0.129 0.5,-0.418 0.5,-0.754 0,-0.335 -0.193,-0.624 -0.502,-0.752 L 11.822,-5.316 c -0.308,-0.128 -0.638,-0.192 -0.968,-0.192"
           style="fill:#41404d;fill-opacity:1;fill-rule:nonzero;stroke:none"
           id="path2370" />
      </g>
      <g
         id="g2372"
         transform="translate(302.2234,236.8181)">
        <path
           d="m 0,0 c -0.164,-0.068 -0.176,-0.219 -0.176,-0.263 0,-0.045 0.012,-0.196 0.175,-0.264 l 10.089,-4.298 c 0.484,-0.202 1.042,-0.203 1.53,-10e-4 l 19.59,8.147 c 0.162,0.068 0.174,0.219 0.174,0.263 0,0.044 -0.012,0.195 -0.174,0.263 l -10.14,4.281 c -0.49,0.205 -1.034,0.204 -1.526,-10e-4 z m 10.854,-5.508 c -0.332,0 -0.664,0.065 -0.973,0.195 l -10.089,4.298 c -0.307,0.128 -0.499,0.417 -0.499,0.752 0,0.335 0.193,0.624 0.503,0.753 l 19.542,8.128 c 0.625,0.258 1.312,0.258 1.935,0 l 10.14,-4.281 c 0.307,-0.129 0.5,-0.418 0.5,-0.754 0,-0.335 -0.193,-0.624 -0.502,-0.752 L 11.822,-5.316 c -0.308,-0.128 -0.638,-0.192 -0.968,-0.192"
           style="fill:#41404d;fill-opacity:1;fill-rule:nonzero;stroke:none"
           id="path2374" />
      </g>
      <g
         id="g2376"
         transform="translate(302.1213,239.5192)">
        <path
           d="m 0,0 19.542,8.128 c 0.555,0.23 1.178,0.23 1.732,0 l 10.137,-4.28 c 0.452,-0.188 0.452,-0.829 0,-1.017 L 11.822,-5.315 c -0.555,-0.232 -1.181,-0.231 -1.736,0.002 L -0.001,-1.016 C -0.453,-0.827 -0.452,-0.188 0,0"
           style="fill:#dadada;fill-opacity:1;fill-rule:nonzero;stroke:none"
           id="path2378" />
      </g>
      <g
         id="g2380"
         transform="translate(302.2234,239.2746)">
        <path
           d="m 0,0 c -0.164,-0.068 -0.176,-0.219 -0.176,-0.263 0,-0.045 0.012,-0.195 0.175,-0.263 l 10.089,-4.299 c 0.486,-0.203 1.044,-0.204 1.53,-10e-4 l 19.59,8.147 c 0.162,0.068 0.174,0.219 0.174,0.263 0,0.044 -0.012,0.195 -0.174,0.263 l -10.14,4.281 c -0.49,0.205 -1.034,0.205 -1.526,-10e-4 z m 10.854,-5.508 c -0.331,0 -0.664,0.065 -0.973,0.195 l -10.089,4.298 c -0.307,0.128 -0.499,0.417 -0.499,0.752 0,0.335 0.193,0.624 0.503,0.753 l 19.542,8.128 c 0.625,0.258 1.312,0.258 1.935,0 l 10.14,-4.281 c 0.307,-0.129 0.5,-0.417 0.5,-0.753 0,-0.336 -0.193,-0.625 -0.502,-0.753 L 11.822,-5.316 c -0.307,-0.128 -0.637,-0.192 -0.968,-0.192"
           style="fill:#41404d;fill-opacity:1;fill-rule:nonzero;stroke:none"
           id="path2382" />
      </g>
      <g
         id="g2384"
         transform="translate(302.2234,239.2746)">
        <path
           d="m 0,0 c -0.164,-0.068 -0.176,-0.219 -0.176,-0.263 0,-0.045 0.012,-0.195 0.175,-0.263 l 10.089,-4.299 c 0.486,-0.203 1.044,-0.204 1.53,-10e-4 l 19.59,8.147 c 0.162,0.068 0.174,0.219 0.174,0.263 0,0.044 -0.012,0.195 -0.174,0.263 l -10.14,4.281 c -0.49,0.205 -1.034,0.205 -1.526,-10e-4 z m 10.854,-5.508 c -0.331,0 -0.664,0.065 -0.973,0.195 l -10.089,4.298 c -0.307,0.128 -0.499,0.417 -0.499,0.752 0,0.335 0.193,0.624 0.503,0.753 l 19.542,8.128 c 0.625,0.258 1.312,0.258 1.935,0 l 10.14,-4.281 c 0.307,-0.129 0.5,-0.417 0.5,-0.753 0,-0.336 -0.193,-0.625 -0.502,-0.753 L 11.822,-5.316 c -0.307,-0.128 -0.637,-0.192 -0.968,-0.192"
           style="fill:#41404d;fill-opacity:1;fill-rule:nonzero;stroke:none"
           id="path2386" />
      </g>
      <g
         id="g2388"
         transform="translate(302.1213,241.9758)">
        <path
           d="m 0,0 19.542,8.128 c 0.555,0.23 1.178,0.23 1.732,0 l 10.137,-4.28 c 0.452,-0.188 0.452,-0.829 0,-1.017 L 11.822,-5.315 c -0.555,-0.232 -1.181,-0.231 -1.736,0.002 L -0.001,-1.016 C -0.453,-0.827 -0.452,-0.188 0,0"
           style="fill:#dadada;fill-opacity:1;fill-rule:nonzero;stroke:none"
           id="path2390" />
      </g>
      <g
         id="g2392"
         transform="translate(302.1213,241.9758)">
        <path
           d="m 0,0 h 0.006 z m 20.409,8.037 c -0.259,0 -0.518,-0.052 -0.764,-0.155 L 0.102,-0.245 v 0 c -0.163,-0.067 -0.176,-0.218 -0.176,-0.263 0,-0.045 0.012,-0.195 0.175,-0.263 L 10.19,-5.07 c 0.486,-0.203 1.044,-0.204 1.53,0 l 19.59,8.146 c 0.162,0.068 0.174,0.219 0.174,0.263 0,0.045 -0.012,0.196 -0.174,0.264 l -10.14,4.28 c -0.245,0.102 -0.503,0.154 -0.761,0.154 m -9.453,-13.79 c -0.331,0 -0.663,0.065 -0.973,0.194 L -0.105,-1.26 c -0.308,0.129 -0.5,0.417 -0.499,0.753 0,0.335 0.192,0.623 0.502,0.752 L 19.44,8.373 c 0.625,0.258 1.312,0.259 1.935,0 l 10.14,-4.281 c 0.307,-0.128 0.5,-0.417 0.5,-0.753 0,-0.336 -0.193,-0.624 -0.502,-0.753 L 11.924,-5.561 c -0.307,-0.127 -0.637,-0.192 -0.968,-0.192"
           style="fill:#41404d;fill-opacity:1;fill-rule:nonzero;stroke:none"
           id="path2394" />
      </g>
      <g
         id="g2396"
         transform="translate(302.1213,241.9758)">
        <path
           d="m 0,0 h 0.006 z m 20.409,8.037 c -0.259,0 -0.518,-0.052 -0.764,-0.155 L 0.102,-0.245 v 0 c -0.163,-0.067 -0.176,-0.218 -0.176,-0.263 0,-0.045 0.012,-0.195 0.175,-0.263 L 10.19,-5.07 c 0.486,-0.203 1.044,-0.204 1.53,0 l 19.59,8.146 c 0.162,0.068 0.174,0.219 0.174,0.263 0,0.045 -0.012,0.196 -0.174,0.264 l -10.14,4.28 c -0.245,0.102 -0.503,0.154 -0.761,0.154 m -9.453,-13.79 c -0.331,0 -0.663,0.065 -0.973,0.194 L -0.105,-1.26 c -0.308,0.129 -0.5,0.417 -0.499,0.753 0,0.335 0.192,0.623 0.502,0.752 L 19.44,8.373 c 0.625,0.258 1.312,0.259 1.935,0 l 10.14,-4.281 c 0.307,-0.128 0.5,-0.417 0.5,-0.753 0,-0.336 -0.193,-0.624 -0.502,-0.753 L 11.924,-5.561 c -0.307,-0.127 -0.637,-0.192 -0.968,-0.192"
           style="fill:#41404d;fill-opacity:1;fill-rule:nonzero;stroke:none"
           id="path2398" />
      </g>
      <g
         id="g2400"
         transform="translate(302.1213,244.4289)">
        <path
           d="m 0,0 19.542,8.127 c 0.555,0.231 1.178,0.231 1.732,0 L 31.411,3.848 c 0.452,-0.189 0.452,-0.829 0,-1.017 L 11.822,-5.316 c -0.555,-0.231 -1.181,-0.23 -1.736,0.002 L -0.001,-1.016 C -0.453,-0.828 -0.452,-0.188 0,0"
           style="fill:#dadada;fill-opacity:1;fill-rule:nonzero;stroke:none"
           id="path2402" />
      </g>
      <g
         id="g2404"
         transform="translate(302.1213,244.4284)">
        <path
           d="m 0,0 h 0.006 z m 20.409,8.037 c -0.259,0 -0.518,-0.052 -0.764,-0.154 L 0.102,-0.245 v 0 c -0.163,-0.067 -0.176,-0.218 -0.176,-0.263 0,-0.044 0.012,-0.195 0.176,-0.263 L 10.19,-5.069 c 0.484,-0.203 1.042,-0.204 1.53,-0.001 l 19.59,8.147 c 0.162,0.068 0.174,0.218 0.174,0.263 0,0.044 -0.012,0.195 -0.174,0.263 L 21.17,7.883 C 20.925,7.985 20.667,8.037 20.409,8.037 M 10.956,-5.752 c -0.331,0 -0.664,0.065 -0.973,0.194 L -0.105,-1.26 c -0.308,0.129 -0.5,0.418 -0.499,0.753 0,0.335 0.192,0.624 0.502,0.752 L 19.44,8.373 c 0.625,0.259 1.312,0.259 1.935,0 l 10.14,-4.281 c 0.307,-0.128 0.5,-0.417 0.5,-0.752 0,-0.336 -0.193,-0.625 -0.502,-0.754 L 11.924,-5.561 c -0.308,-0.127 -0.638,-0.191 -0.968,-0.191"
           style="fill:#41404d;fill-opacity:1;fill-rule:nonzero;stroke:none"
           id="path2406" />
      </g>
      <g
         id="g2408"
         transform="translate(302.1213,244.4323)">
        <path
           d="m 0,0 h 0.006 z m 20.409,8.037 c -0.259,0 -0.518,-0.052 -0.764,-0.155 L 0.102,-0.245 v 0 c -0.163,-0.067 -0.176,-0.218 -0.176,-0.263 0,-0.045 0.012,-0.195 0.176,-0.263 L 10.19,-5.07 c 0.525,-0.22 1.046,-0.211 1.59,0.024 l 18.729,7.79 c 0.72,0.299 0.912,0.6 0.912,0.731 0,0.054 -0.038,0.097 -0.111,0.128 L 21.17,7.883 C 20.925,7.985 20.667,8.037 20.409,8.037 M 10.951,-5.758 c -0.326,0 -0.649,0.066 -0.968,0.199 L -0.105,-1.26 c -0.308,0.129 -0.5,0.417 -0.499,0.753 0,0.335 0.192,0.623 0.502,0.752 L 19.44,8.373 c 0.625,0.258 1.312,0.258 1.935,0 l 10.14,-4.281 c 0.273,-0.113 0.437,-0.345 0.437,-0.617 0,-0.264 -0.162,-0.773 -1.24,-1.222 L 11.987,-5.535 c -0.346,-0.149 -0.692,-0.223 -1.036,-0.223"
           style="fill:#41404d;fill-opacity:1;fill-rule:nonzero;stroke:none"
           id="path2410" />
      </g>
      <g
         id="g2412"
         transform="translate(310.2668,250.2766)">
        <path
           d="m 0,0 11.397,4.74 c 0.554,0.231 1.178,0.231 1.731,0 L 23.265,0.46 c 0.452,-0.188 0.452,-0.829 0,-1.017 L 3.677,-8.704 C 3.121,-8.935 2.496,-8.934 1.94,-8.701 l -10.087,4.297 c -0.451,0.189 -0.45,0.828 10e-4,1.016 l 3.871,1.61"
           style="fill:#ffffff;fill-opacity:1;fill-rule:nonzero;stroke:none"
           id="path2414" />
      </g>
      <g
         id="g2416"
         transform="translate(313.0774,241.1359)">
        <path
           d="m 0,0 c -0.332,0 -0.664,0.065 -0.973,0.194 l -10.089,4.299 c -0.307,0.129 -0.499,0.417 -0.499,0.753 10e-4,0.336 0.193,0.624 0.503,0.752 l 3.871,1.61 C -7.05,7.661 -6.896,7.6 -6.84,7.465 -6.784,7.33 -6.848,7.174 -6.983,7.118 l -3.871,-1.61 C -11.017,5.44 -11.03,5.29 -11.03,5.245 c 0,-0.044 0.012,-0.195 0.176,-0.264 L -0.766,0.683 C -0.282,0.48 0.276,0.479 0.764,0.682 l 19.59,8.147 c 0.162,0.068 0.174,0.219 0.174,0.263 0,0.045 -0.012,0.196 -0.174,0.263 l -10.14,4.281 c -0.49,0.205 -1.034,0.204 -1.526,0 L -2.709,8.896 C -2.845,8.841 -3,8.903 -3.056,9.039 c -0.056,0.135 0.008,0.29 0.143,0.347 l 11.397,4.739 c 0.625,0.259 1.312,0.259 1.935,0 l 10.14,-4.28 c 0.307,-0.128 0.5,-0.417 0.5,-0.753 0,-0.336 -0.193,-0.624 -0.502,-0.753 L 0.968,0.192 C 0.66,0.064 0.33,0 0,0"
           style="fill:#41404d;fill-opacity:1;fill-rule:nonzero;stroke:none"
           id="path2418" />
      </g>
      <g
         id="g2420"
         transform="translate(329.9338,250.7214)">
        <path
           d="m 0,0 -7.029,2.833 -3.725,-1.548 7.029,-2.834 z"
           style="fill:#f4c151;fill-opacity:1;fill-rule:nonzero;stroke:none"
           id="path2422" />
      </g>
      <g
         id="g2424"
         transform="translate(319.8791,252.0095)">
        <path
           d="m 0,0 6.329,-2.551 3.025,1.259 -6.327,2.551 z m 6.33,-3.103 c -0.034,0 -0.068,0.007 -0.1,0.02 l -7.029,2.833 c -0.1,0.041 -0.165,0.137 -0.166,0.245 -0.001,0.108 0.064,0.205 0.163,0.247 l 3.726,1.549 c 0.065,0.027 0.137,0.027 0.201,0.001 l 7.03,-2.834 c 0.099,-0.041 0.164,-0.137 0.165,-0.245 10e-4,-0.108 -0.064,-0.205 -0.163,-0.247 L 6.431,-3.082 C 6.399,-3.096 6.364,-3.103 6.33,-3.103"
           style="fill:#41404d;fill-opacity:1;fill-rule:nonzero;stroke:none"
           id="path2426" />
      </g>
      <g
         id="g2428"
         transform="translate(315.7131,250.4567)">
        <path
           d="M 0,0 2.935,-1.175"
           style="fill:#ffffff;fill-opacity:1;fill-rule:nonzero;stroke:none"
           id="path2430" />
      </g>
      <g
         id="g2432"
         transform="translate(318.6477,249.0158)">
        <path
           d="m 0,0 c -0.033,0 -0.066,0.006 -0.099,0.019 l -2.934,1.176 c -0.136,0.054 -0.202,0.209 -0.148,0.345 0.055,0.136 0.21,0.202 0.345,0.147 L 0.099,0.511 C 0.235,0.457 0.301,0.303 0.246,0.167 0.205,0.063 0.105,0 0,0"
           style="fill:#41404d;fill-opacity:1;fill-rule:nonzero;stroke:none"
           id="path2434" />
      </g>
      <g
         id="g2436"
         transform="translate(320.0588,248.6159)">
        <path
           d="M 0,0 3.046,-1.275"
           style="fill:#ffffff;fill-opacity:1;fill-rule:nonzero;stroke:none"
           id="path2438" />
      </g>
      <g
         id="g2440"
         transform="translate(323.1047,247.0754)">
        <path
           d="m 0,0 c -0.034,0 -0.069,0.007 -0.103,0.021 l -3.045,1.275 c -0.136,0.057 -0.199,0.212 -0.143,0.348 0.057,0.135 0.212,0.197 0.348,0.142 L 0.103,0.51 C 0.237,0.453 0.302,0.298 0.245,0.163 0.202,0.061 0.104,0 0,0"
           style="fill:#41404d;fill-opacity:1;fill-rule:nonzero;stroke:none"
           id="path2442" />
      </g>
      <g
         id="g2444"
         transform="translate(318.3005,247.9738)">
        <path
           d="M 0,0 1.501,-0.627"
           style="fill:#ffffff;fill-opacity:1;fill-rule:nonzero;stroke:none"
           id="path2446" />
      </g>
      <g
         id="g2448"
         transform="translate(319.8015,247.0807)">
        <path
           d="m 0,0 c -0.034,0 -0.069,0.007 -0.102,0.021 l -1.501,0.627 c -0.135,0.057 -0.199,0.212 -0.143,0.347 0.057,0.136 0.212,0.2 0.347,0.143 L 0.102,0.51 C 0.237,0.454 0.301,0.298 0.245,0.164 0.202,0.062 0.104,0 0,0"
           style="fill:#41404d;fill-opacity:1;fill-rule:nonzero;stroke:none"
           id="path2450" />
      </g>
      <g
         id="g2452"
         transform="translate(311.3674,244.4743)">
        <path
           d="M 0,0 -4.411,1.778"
           style="fill:#ffffff;fill-opacity:1;fill-rule:nonzero;stroke:none"
           id="path2454" />
      </g>
      <g
         id="g2456"
         transform="translate(311.3669,244.2092)">
        <path
           d="m 0,0 c -0.033,0 -0.067,0.006 -0.099,0.02 l -4.41,1.777 c -0.137,0.055 -0.202,0.209 -0.147,0.345 0.054,0.136 0.209,0.202 0.344,0.148 L 0.099,0.512 C 0.235,0.457 0.301,0.302 0.246,0.167 0.204,0.063 0.105,0 0,0"
           style="fill:#41404d;fill-opacity:1;fill-rule:nonzero;stroke:none"
           id="path2458" />
      </g>
      <g
         id="g2460"
         transform="translate(313.8454,249.8537)">
        <path
           d="M 0,0 2.935,-1.176"
           style="fill:#ffffff;fill-opacity:1;fill-rule:nonzero;stroke:none"
           id="path2462" />
      </g>
      <g
         id="g2464"
         transform="translate(316.7805,248.4128)">
        <path
           d="m 0,0 c -0.033,0 -0.066,0.006 -0.099,0.019 l -2.935,1.176 c -0.136,0.054 -0.202,0.208 -0.147,0.345 0.054,0.136 0.21,0.201 0.345,0.147 L 0.098,0.511 C 0.234,0.457 0.3,0.302 0.246,0.167 0.205,0.063 0.105,0 0,0"
           style="fill:#41404d;fill-opacity:1;fill-rule:nonzero;stroke:none"
           id="path2466" />
      </g>
      <g
         id="g2468"
         transform="translate(312.2072,238.8498)">
        <path
           d="m 0,0 c -0.051,0 -0.103,0.014 -0.148,0.045 l -10.087,6.758 c -0.121,0.081 -0.154,0.246 -0.073,0.367 0.082,0.122 0.245,0.154 0.369,0.073 L 0.147,0.485 C 0.269,0.404 0.302,0.239 0.22,0.117 0.169,0.041 0.085,0 0,0"
           style="fill:#41404d;fill-opacity:1;fill-rule:nonzero;stroke:none"
           id="path2470" />
      </g>
      <g
         id="g2472"
         transform="translate(312.1433,236.424)">
        <path
           d="M 0,0 C -0.051,0 -0.102,0.015 -0.147,0.044 L -10.17,6.737 c -0.122,0.081 -0.155,0.246 -0.074,0.368 0.082,0.122 0.247,0.155 0.368,0.074 L 0.147,0.486 C 0.269,0.405 0.302,0.24 0.221,0.118 0.169,0.042 0.085,0 0,0"
           style="fill:#41404d;fill-opacity:1;fill-rule:nonzero;stroke:none"
           id="path2474" />
      </g>
      <g
         id="g2476"
         transform="translate(312.2072,233.9406)">
        <path
           d="m 0,0 c -0.051,0 -0.102,0.015 -0.147,0.044 l -10.087,6.685 c -0.122,0.081 -0.155,0.246 -0.075,0.368 0.082,0.124 0.246,0.154 0.369,0.075 L 0.146,0.486 C 0.269,0.406 0.302,0.241 0.221,0.119 0.17,0.042 0.085,0 0,0"
           style="fill:#41404d;fill-opacity:1;fill-rule:nonzero;stroke:none"
           id="path2478" />
      </g>
      <g
         id="g2480"
         transform="translate(312.2072,231.4841)">
        <path
           d="m 0,0 c -0.05,0 -0.101,0.014 -0.146,0.044 l -10.087,6.651 c -0.122,0.08 -0.156,0.245 -0.076,0.367 0.081,0.123 0.245,0.158 0.368,0.076 L 0.146,0.486 C 0.268,0.406 0.302,0.241 0.221,0.119 0.17,0.042 0.086,0 0,0"
           style="fill:#41404d;fill-opacity:1;fill-rule:nonzero;stroke:none"
           id="path2482" />
      </g>
      <g
         id="g2484"
         transform="translate(299.8332,226.0026)">
        <path
           d="M 0,0 8.863,-1.549 6.159,2.877 Z"
           style="fill:#dadada;fill-opacity:1;fill-rule:nonzero;stroke:none"
           id="path2486" />
      </g>
      <g
         id="g2488"
         transform="translate(310.4856,221.5666)">
        <path
           d="M 0,0 9.699,-1.683 5.988,2.876 Z"
           style="fill:#dadada;fill-opacity:1;fill-rule:nonzero;stroke:none"
           id="path2490" />
      </g>
      <g
         id="g2492"
         transform="translate(330.7063,233.6589)">
        <path
           d="m 0,0 -15.172,-6.325 -1.191,-0.5 c -0.117,-0.041 -0.229,-0.134 -0.328,-0.283 l -3.401,-4.596 -5.698,8.918 c -0.357,0.395 -0.84,0.561 -1.233,0.233 L -6.408,6.069 C -5.745,6.346 -5.14,5.988 -4.682,5.394 L 0.021,0.01"
           style="fill:#ffffff;fill-opacity:1;fill-rule:nonzero;stroke:none"
           id="path2494" />
      </g>
      <g
         id="g2496"
         transform="translate(327.9236,221.8801)">
        <path
           d="M 0,0 -3.494,4.208 C -3.822,4.603 -4.369,4.737 -4.843,4.539 L -8.877,2.851 -13.559,8.245"
           style="fill:#ffffff;fill-opacity:1;fill-rule:nonzero;stroke:none"
           id="path2498" />
      </g>
      <g
         id="g2500"
         transform="translate(339.4631,230.4201)">
        <path
           d="M 0,0 C -0.076,0 -0.151,0.033 -0.204,0.096 L -3.698,4.304 C -3.953,4.61 -4.37,4.714 -4.739,4.56 L -8.774,2.872 C -8.882,2.828 -9.003,2.857 -9.077,2.942 l -4.681,5.393 c -0.096,0.111 -0.085,0.279 0.026,0.375 0.11,0.097 0.278,0.085 0.374,-0.026 l 4.556,-5.249 3.858,1.614 c 0.588,0.246 1.251,0.081 1.655,-0.406 L 0.204,0.435 C 0.297,0.322 0.282,0.155 0.17,0.061 0.12,0.021 0.06,0 0,0"
           style="fill:#41404d;fill-opacity:1;fill-rule:nonzero;stroke:none"
           id="path2502" />
      </g>
      <g
         id="g2504"
         transform="translate(299.8142,226.2546)">
        <path
           d="M 0,0 3.749,4.729 C 4.142,5.057 4.625,4.891 4.983,4.496 l 5.698,-8.919 3.401,4.596 c 0.269,0.28 0.586,0.398 0.872,0.111 l 7.483,-9.194 c 0.306,-0.367 0.817,-0.493 1.259,-0.309 l 19.55,8.134 c 0.363,0.151 0.477,0.611 0.225,0.914 l -1.666,2.006"
           style="fill:#ffffff;fill-opacity:1;fill-rule:nonzero;stroke:none"
           id="path2506" />
      </g>
      <g
         id="g2508"
         transform="translate(323.0871,216.6852)">
        <path
           d="m 0,0 c -0.393,0 -0.775,0.172 -1.04,0.49 l -7.484,9.196 c -0.07,0.067 -0.124,0.066 -0.152,0.067 -0.089,0 -0.203,-0.069 -0.325,-0.195 l -3.377,-4.57 c -0.053,-0.07 -0.135,-0.099 -0.224,-0.107 -0.086,0.003 -0.167,0.049 -0.213,0.122 l -5.699,8.919 c -0.086,0.09 -0.48,0.474 -0.84,0.173 l -3.711,-4.69 c -0.091,-0.116 -0.258,-0.134 -0.372,-0.043 -0.116,0.091 -0.135,0.257 -0.043,0.372 l 3.748,4.729 c 0.511,0.435 1.139,0.332 1.639,-0.22 l 5.517,-8.629 3.171,4.286 c 0.25,0.262 0.486,0.382 0.725,0.384 h 0.005 c 0.138,0 0.344,-0.043 0.544,-0.244 L -0.63,0.827 C -0.398,0.55 -0.019,0.454 0.321,0.596 l 19.551,8.133 c 0.094,0.04 0.162,0.119 0.186,0.219 0.025,0.099 0.001,0.202 -0.064,0.281 l -1.666,2.006 c -0.093,0.113 -0.078,0.28 0.035,0.373 0.112,0.093 0.277,0.08 0.374,-0.034 L 20.402,9.567 C 20.576,9.358 20.638,9.085 20.574,8.821 20.509,8.556 20.326,8.344 20.076,8.239 L 0.524,0.105 C 0.354,0.034 0.176,0 0,0"
           style="fill:#41404d;fill-opacity:1;fill-rule:nonzero;stroke:none"
           id="path2510" />
      </g>
      <g
         id="g2512"
         transform="translate(330.6071,233.5456)">
        <path
           d="M 0,0 -4.702,5.384 C -5.161,5.979 -5.765,6.336 -6.429,6.06 l -20.376,-8.477"
           style="fill:#ffffff;fill-opacity:1;fill-rule:nonzero;stroke:none"
           id="path2514" />
      </g>
      <g
         id="g2516"
         transform="translate(303.8025,230.8625)">
        <path
           d="m 0,0 c -0.104,0 -0.203,0.062 -0.245,0.164 -0.056,0.135 0.008,0.29 0.143,0.347 l 20.376,8.477 c 0.707,0.293 1.433,0.026 2.039,-0.759 L 27.005,2.858 C 27.102,2.748 27.09,2.58 26.979,2.483 26.871,2.388 26.703,2.398 26.605,2.509 l -4.703,5.384 c -0.324,0.42 -0.823,0.855 -1.424,0.605 L 0.102,0.021 C 0.068,0.007 0.034,0 0,0"
           style="fill:#41404d;fill-opacity:1;fill-rule:nonzero;stroke:none"
           id="path2518" />
      </g>
      <g
         id="g2520"
         transform="translate(310.6364,222.0231)">
        <path
           d="M 0,0 3.259,4.405 C 3.59,4.756 3.906,4.814 4.548,5.092"
           style="fill:#ffffff;fill-opacity:1;fill-rule:nonzero;stroke:none"
           id="path2522" />
      </g>
      <g
         id="g2524"
         transform="translate(310.6364,221.7575)">
        <path
           d="M 0,0 C -0.055,0 -0.11,0.017 -0.158,0.052 -0.275,0.14 -0.3,0.305 -0.213,0.423 l 3.259,4.405 c 0.313,0.335 0.6,0.449 0.996,0.608 0.118,0.047 0.25,0.1 0.4,0.166 C 4.578,5.661 4.733,5.598 4.792,5.463 4.85,5.329 4.788,5.173 4.654,5.114 4.498,5.047 4.362,4.993 4.239,4.943 3.869,4.795 3.665,4.713 3.453,4.488 L 0.213,0.107 C 0.161,0.038 0.081,0 0,0"
           style="fill:#41404d;fill-opacity:1;fill-rule:nonzero;stroke:none"
           id="path2526" />
      </g>
      <g
         id="g2528"
         transform="translate(310.4948,221.8351)">
        <path
           d="M 0,0 3.401,4.596 C 3.67,4.876 3.987,4.994 4.273,4.707 L 5.979,2.608 Z"
           style="fill:#dadada;fill-opacity:1;fill-rule:nonzero;stroke:none"
           id="path2530" />
      </g>
      <g
         id="g2532"
         transform="translate(314.4143,226.4421)">
        <path
           d="m 0,0 c -0.079,0.011 -0.205,-0.068 -0.328,-0.195 l -2.789,-3.772 4.75,2.071 -1.485,1.828 C 0.082,-0.002 0.023,0 0,0 m -3.919,-4.872 c -0.079,0 -0.156,0.035 -0.208,0.1 -0.075,0.094 -0.077,0.227 -0.006,0.323 l 3.401,4.596 c 0.25,0.262 0.486,0.382 0.725,0.384 h 0.005 c 0.138,0 0.344,-0.043 0.544,-0.244 l 1.723,-2.119 c 0.052,-0.064 0.071,-0.15 0.052,-0.23 -0.02,-0.081 -0.076,-0.147 -0.151,-0.18 L -3.813,-4.85 c -0.034,-0.015 -0.07,-0.022 -0.106,-0.022"
           style="fill:#41404d;fill-opacity:1;fill-rule:nonzero;stroke:none"
           id="path2534" />
      </g>
      <g
         id="g2536"
         transform="translate(305.9919,228.8796)">
        <path
           d="m 0,0 -6.159,-2.612 3.735,4.716 c 0.394,0.329 0.871,0.162 1.233,-0.24 z"
           style="fill:#dadada;fill-opacity:1;fill-rule:nonzero;stroke:none"
           id="path2538" />
      </g>
      <g
         id="g2540"
         transform="translate(304.032,230.8932)">
        <path
           d="m 0,0 c -0.096,0 -0.196,-0.031 -0.294,-0.113 l -3.053,-3.863 4.914,2.084 -1.022,1.599 C 0.46,-0.202 0.244,0 0,0 m -4.199,-4.891 c -0.08,0 -0.159,0.037 -0.211,0.105 -0.073,0.096 -0.072,0.23 0.004,0.325 l 3.734,4.716 C -0.161,0.687 0.467,0.583 0.966,0.027 L 2.184,-1.871 C 2.226,-1.937 2.237,-2.018 2.214,-2.092 2.19,-2.167 2.136,-2.228 2.064,-2.257 L -4.095,-4.87 c -0.033,-0.014 -0.069,-0.021 -0.104,-0.021"
           style="fill:#41404d;fill-opacity:1;fill-rule:nonzero;stroke:none"
           id="path2542" />
      </g>
      <g
         id="g2544"
         transform="translate(311.8674,228.1472)">
        <path
           d="M 0,0 C -0.085,0 -0.169,0.042 -0.221,0.118 L -2.25,3.162 c -0.081,0.121 -0.048,0.286 0.074,0.368 0.121,0.08 0.285,0.049 0.368,-0.074 L 0.221,0.412 C 0.302,0.291 0.269,0.126 0.147,0.044 0.102,0.015 0.051,0 0,0"
           style="fill:#41404d;fill-opacity:1;fill-rule:nonzero;stroke:none"
           id="path2546" />
      </g>
      <g
         id="g2548"
         transform="translate(309.3576,228.4885)">
        <path
           d="m 0,0 c -0.085,0 -0.169,0.042 -0.221,0.118 l -1.322,1.985 c -0.082,0.122 -0.049,0.286 0.073,0.368 0.121,0.08 0.286,0.049 0.368,-0.074 L 0.221,0.413 C 0.302,0.291 0.269,0.126 0.147,0.044 0.102,0.015 0.051,0 0,0"
           style="fill:#41404d;fill-opacity:1;fill-rule:nonzero;stroke:none"
           id="path2550" />
      </g>
      <g
         id="g2552"
         transform="translate(334.8747,233.2585)">
        <path
           d="M 0,0 5.825,-6.875 1.807,-8.53 -4.018,-1.655 Z"
           style="fill:#f4c151;fill-opacity:1;fill-rule:nonzero;stroke:none"
           id="path2554" />
      </g>
      <g
         id="g2556"
         transform="translate(331.2946,231.4968)">
        <path
           d="M 0,0 5.465,-6.449 8.966,-5.006 3.503,1.443 Z M 5.387,-7.033 C 5.31,-7.033 5.236,-7 5.185,-6.939 L -0.64,-0.064 C -0.695,0 -0.716,0.087 -0.696,0.169 -0.675,0.252 -0.618,0.32 -0.539,0.352 L 3.48,2.007 C 3.586,2.05 3.71,2.021 3.783,1.934 L 9.607,-4.941 C 9.662,-5.006 9.683,-5.093 9.663,-5.176 9.642,-5.258 9.584,-5.326 9.505,-5.358 L 5.489,-7.013 C 5.456,-7.026 5.421,-7.033 5.387,-7.033"
           style="fill:#41404d;fill-opacity:1;fill-rule:nonzero;stroke:none"
           id="path2558" />
      </g>
      <g
         id="g2560"
         transform="translate(330.1154,227.4474)">
        <path
           d="M 0,0 C -0.075,0 -0.149,0.032 -0.202,0.094 L -2.475,2.77 c -0.095,0.111 -0.081,0.279 0.03,0.374 0.112,0.094 0.279,0.083 0.375,-0.031 L 0.202,0.437 C 0.297,0.326 0.283,0.158 0.172,0.063 0.123,0.021 0.061,0 0,0"
           style="fill:#41404d;fill-opacity:1;fill-rule:nonzero;stroke:none"
           id="path2562" />
      </g>
      <g
         id="g2564"
         transform="translate(328.3195,226.6306)">
        <path
           d="M 0,0 C -0.075,0 -0.149,0.031 -0.202,0.094 L -2.475,2.77 c -0.095,0.111 -0.081,0.279 0.03,0.374 0.112,0.093 0.279,0.081 0.375,-0.031 L 0.202,0.437 C 0.297,0.325 0.283,0.158 0.172,0.063 0.123,0.021 0.061,0 0,0"
           style="fill:#41404d;fill-opacity:1;fill-rule:nonzero;stroke:none"
           id="path2566" />
      </g>
      <g
         id="g2568"
         transform="translate(322.092,221.1301)">
        <path
           d="m 0,0 c -0.075,0 -0.15,0.032 -0.203,0.094 l -2.812,3.319 c -0.094,0.111 -0.081,0.279 0.031,0.374 0.113,0.093 0.279,0.081 0.375,-0.031 L 0.203,0.437 C 0.297,0.325 0.283,0.158 0.171,0.063 0.122,0.021 0.061,0 0,0"
           style="fill:#41404d;fill-opacity:1;fill-rule:nonzero;stroke:none"
           id="path2570" />
      </g>
      <g
         id="g2572"
         transform="translate(333.4026,223.5197)">
        <path
           d="m 0,0 c -0.075,0 -0.149,0.032 -0.202,0.093 l -2.299,2.705 c -0.096,0.112 -0.082,0.28 0.029,0.374 0.112,0.095 0.279,0.082 0.375,-0.03 L 0.202,0.437 C 0.297,0.326 0.284,0.158 0.172,0.063 0.123,0.021 0.062,0 0,0"
           style="fill:#41404d;fill-opacity:1;fill-rule:nonzero;stroke:none"
           id="path2574" />
      </g>
      <g
         id="g2576"
         transform="translate(330.3147,224.3054)">
        <path
           d="m 0,0 c -0.072,0 -0.143,0.029 -0.196,0.086 l -1.007,1.102 c -0.099,0.108 -0.091,0.276 0.016,0.375 0.108,0.098 0.276,0.092 0.375,-0.017 L 0.196,0.444 C 0.294,0.336 0.287,0.168 0.179,0.069 0.128,0.023 0.064,0 0,0"
           style="fill:#41404d;fill-opacity:1;fill-rule:nonzero;stroke:none"
           id="path2578" />
      </g>
      <g
         id="g2580"
         transform="translate(323.0373,230.1242)">
        <path
           d="m 0,0 c -0.104,0 -0.203,0.061 -0.245,0.163 -0.056,0.135 0.008,0.291 0.143,0.347 L 7.447,3.657 C 7.582,3.712 7.737,3.65 7.793,3.514 7.85,3.379 7.786,3.224 7.65,3.167 L 0.102,0.021 C 0.068,0.007 0.034,0 0,0"
           style="fill:#41404d;fill-opacity:1;fill-rule:nonzero;stroke:none"
           id="path2582" />
      </g>
      <g
         id="g2584"
         transform="translate(315.1843,226.8503)">
        <path
           d="m 0,0 c -0.104,0 -0.203,0.061 -0.245,0.163 -0.056,0.135 0.008,0.291 0.143,0.347 L 3.729,2.107 C 3.863,2.162 4.021,2.101 4.077,1.965 4.133,1.83 4.069,1.674 3.934,1.618 L 0.102,0.02 C 0.069,0.006 0.034,0 0,0"
           style="fill:#41404d;fill-opacity:1;fill-rule:nonzero;stroke:none"
           id="path2586" />
      </g>
      <g
         id="g2588"
         transform="translate(320.4314,229.0378)">
        <path
           d="m 0,0 c -0.104,0 -0.203,0.061 -0.245,0.163 -0.056,0.135 0.008,0.291 0.143,0.347 L 1.324,1.104 C 1.458,1.159 1.614,1.097 1.671,0.961 1.727,0.827 1.663,0.671 1.528,0.614 L 0.102,0.02 C 0.069,0.007 0.034,0 0,0"
           style="fill:#41404d;fill-opacity:1;fill-rule:nonzero;stroke:none"
           id="path2590" />
      </g>
    </g>
  </g>
</svg>
