<?xml version="1.0" encoding="UTF-8" standalone="no"?>
<svg
   xmlns:dc="http://purl.org/dc/elements/1.1/"
   xmlns:cc="http://creativecommons.org/ns#"
   xmlns:rdf="http://www.w3.org/1999/02/22-rdf-syntax-ns#"
   xmlns:svg="http://www.w3.org/2000/svg"
   xmlns="http://www.w3.org/2000/svg"
   xmlns:sodipodi="http://sodipodi.sourceforge.net/DTD/sodipodi-0.dtd"
   xmlns:inkscape="http://www.inkscape.org/namespaces/inkscape"
   width="21.91382mm"
   height="12.7118mm"
   viewBox="0 0 21.913821 12.711799"
   version="1.1"
   id="svg8037"
   inkscape:version="1.0.1 (1.0.1+r73)"
   sodipodi:docname="design_3.svg">
  <defs
     id="defs8031" />
  <sodipodi:namedview
     id="base"
     pagecolor="#ffffff"
     bordercolor="#666666"
     borderopacity="1.0"
     inkscape:pageopacity="0.0"
     inkscape:pageshadow="2"
     inkscape:zoom="0.35"
     inkscape:cx="-25.429122"
     inkscape:cy="265.87146"
     inkscape:document-units="mm"
     inkscape:current-layer="layer1"
     inkscape:document-rotation="0"
     showgrid="false"
     fit-margin-top="1"
     fit-margin-right="1"
     fit-margin-bottom="1"
     fit-margin-left="1"
     inkscape:window-width="1853"
     inkscape:window-height="1025"
     inkscape:window-x="67"
     inkscape:window-y="27"
     inkscape:window-maximized="1" />
  <metadata
     id="metadata8034">
    <rdf:RDF>
      <cc:Work
         rdf:about="">
        <dc:format>image/svg+xml</dc:format>
        <dc:type
           rdf:resource="http://purl.org/dc/dcmitype/StillImage" />
        <dc:title></dc:title>
      </cc:Work>
    </rdf:RDF>
  </metadata>
  <g
     inkscape:label="Capa 1"
     inkscape:groupmode="layer"
     id="layer1"
     transform="translate(-112.56146,-77.821509)">
    <g
       id="g7956"
       transform="matrix(0.35277777,0,0,-0.35277777,-22.992748,237.43613)">
      <g
         id="g506"
         transform="translate(417.7385,425.7184)">
        <path
           d="M 0,0 9.849,-6.345 7.311,3.042 Z"
           style="fill:#dadada;fill-opacity:1;fill-rule:nonzero;stroke:none"
           id="path508" />
      </g>
      <g
         id="g510"
         transform="translate(387.6872,426.7458)">
        <path
           d="m 0,0 22.307,9.281 c 0.554,0.23 1.177,0.23 1.732,0 L 38.211,3.384 c 0.453,-0.188 0.453,-0.828 0,-1.017 L 15.858,-6.932 c -0.555,-0.232 -1.18,-0.231 -1.735,0.002 L -0.001,-1.016 C -0.453,-0.827 -0.452,-0.188 0,0"
           style="fill:#ffffff;fill-opacity:1;fill-rule:nonzero;stroke:none"
           id="path512" />
      </g>
      <g
         id="g514"
         transform="translate(417.7385,428.175)">
        <path
           d="M 0,0 V -2.457 L 7.311,0.585 6.146,2.557 Z"
           style="fill:#dadada;fill-opacity:1;fill-rule:nonzero;stroke:none"
           id="path516" />
      </g>
      <g
         id="g518"
         transform="translate(387.7888,426.5007)">
        <path
           d="M 0,0 C -0.163,-0.068 -0.175,-0.219 -0.175,-0.263 -0.176,-0.308 -0.163,-0.458 0,-0.526 l 14.123,-5.915 c 0.494,-0.206 1.039,-0.207 1.533,-0.001 l 22.352,9.299 c 0.163,0.068 0.175,0.219 0.175,0.264 0,0.045 -0.012,0.195 -0.175,0.263 L 23.835,9.281 c -0.494,0.205 -1.036,0.204 -1.528,0 z m 14.891,-7.127 c -0.329,0 -0.659,0.065 -0.973,0.197 l -14.123,5.914 c -0.309,0.129 -0.502,0.418 -0.501,0.753 0,0.335 0.193,0.624 0.503,0.753 l 22.307,9.281 c 0.623,0.258 1.31,0.259 1.935,0 L 38.211,3.874 c 0.31,-0.129 0.503,-0.417 0.503,-0.753 0,-0.336 -0.193,-0.624 -0.503,-0.754 l -22.352,-9.3 c -0.312,-0.129 -0.641,-0.194 -0.968,-0.194"
           style="fill:#41404d;fill-opacity:1;fill-rule:nonzero;stroke:none"
           id="path520" />
      </g>
      <g
         id="g522"
         transform="translate(387.6872,429.2018)">
        <path
           d="m 0,0 22.307,9.281 c 0.554,0.231 1.177,0.231 1.732,0 L 38.211,3.384 c 0.453,-0.188 0.453,-0.828 0,-1.016 l -22.353,-9.3 c -0.555,-0.231 -1.18,-0.231 -1.735,0.002 L -0.001,-1.016 C -0.453,-0.827 -0.452,-0.187 0,0"
           style="fill:#ffffff;fill-opacity:1;fill-rule:nonzero;stroke:none"
           id="path524" />
      </g>
      <g
         id="g526"
         transform="translate(417.7385,430.6315)">
        <path
           d="M 0,0 4.981,2.072 6.146,0.1 0,-2.457 Z"
           style="fill:#dadada;fill-opacity:1;fill-rule:nonzero;stroke:none"
           id="path528" />
      </g>
      <g
         id="g530"
         transform="translate(387.7888,428.9572)">
        <path
           d="M 0,0 C -0.163,-0.068 -0.175,-0.219 -0.175,-0.263 -0.176,-0.308 -0.163,-0.458 0,-0.526 l 14.123,-5.915 c 0.494,-0.206 1.039,-0.207 1.533,-0.001 l 22.352,9.299 c 0.163,0.068 0.175,0.219 0.175,0.264 0,0.045 -0.012,0.195 -0.175,0.263 L 23.835,9.281 c -0.494,0.205 -1.036,0.204 -1.528,0 z m 14.891,-7.127 c -0.329,0 -0.659,0.065 -0.973,0.197 l -14.123,5.914 c -0.309,0.129 -0.502,0.417 -0.501,0.753 0,0.336 0.193,0.624 0.503,0.753 l 22.307,9.281 c 0.623,0.259 1.31,0.259 1.935,0 L 38.211,3.874 c 0.31,-0.129 0.503,-0.417 0.503,-0.753 0,-0.336 -0.193,-0.624 -0.503,-0.754 l -22.352,-9.3 c -0.312,-0.129 -0.641,-0.194 -0.968,-0.194"
           style="fill:#41404d;fill-opacity:1;fill-rule:nonzero;stroke:none"
           id="path532" />
      </g>
      <g
         id="g534"
         transform="translate(387.6872,431.6584)">
        <path
           d="m 0,0 22.307,9.281 c 0.554,0.231 1.177,0.231 1.732,0 L 38.211,3.384 c 0.453,-0.188 0.453,-0.828 0,-1.016 l -22.353,-9.3 c -0.555,-0.231 -1.18,-0.231 -1.735,0.002 L -0.001,-1.016 C -0.453,-0.827 -0.452,-0.187 0,0"
           style="fill:#ffffff;fill-opacity:1;fill-rule:nonzero;stroke:none"
           id="path536" />
      </g>
      <g
         id="g538"
         transform="translate(417.7385,433.0231)">
        <path
           d="m 0,0 v -2.392 l 4.981,2.073 -1.18,1.997 z"
           style="fill:#dadada;fill-opacity:1;fill-rule:nonzero;stroke:none"
           id="path540" />
      </g>
      <g
         id="g542"
         transform="translate(387.7888,431.4138)">
        <path
           d="M 0,0 C -0.163,-0.068 -0.175,-0.219 -0.175,-0.263 -0.176,-0.308 -0.163,-0.458 0,-0.526 l 14.123,-5.915 c 0.494,-0.206 1.039,-0.207 1.533,-0.001 l 22.352,9.299 c 0.163,0.068 0.175,0.219 0.175,0.264 0,0.045 -0.012,0.195 -0.175,0.263 L 23.835,9.281 c -0.494,0.205 -1.036,0.204 -1.528,0 z m 14.891,-7.127 c -0.329,0 -0.659,0.065 -0.973,0.197 l -14.123,5.914 c -0.309,0.129 -0.502,0.418 -0.501,0.753 0,0.336 0.193,0.624 0.503,0.753 l 22.307,9.281 c 0.623,0.258 1.31,0.259 1.935,0 L 38.211,3.874 c 0.31,-0.129 0.503,-0.417 0.503,-0.753 0,-0.336 -0.193,-0.624 -0.503,-0.753 L 15.859,-6.933 c -0.312,-0.129 -0.641,-0.194 -0.968,-0.194"
           style="fill:#41404d;fill-opacity:1;fill-rule:nonzero;stroke:none"
           id="path544" />
      </g>
      <g
         id="g546"
         transform="translate(387.6872,434.1115)">
        <path
           d="m 0,0 22.307,9.281 c 0.554,0.23 1.177,0.23 1.732,0 L 38.211,3.384 c 0.453,-0.188 0.453,-0.828 0,-1.016 l -22.353,-9.3 c -0.555,-0.232 -1.18,-0.231 -1.735,0.002 L -0.001,-1.016 C -0.453,-0.827 -0.452,-0.188 0,0"
           style="fill:#ffffff;fill-opacity:1;fill-rule:nonzero;stroke:none"
           id="path548" />
      </g>
      <g
         id="g550"
         transform="translate(420.1008,436.8635)">
        <path
           d="M 0,0 -2.362,-1.384 V -3.84 l 3.818,1.652 z"
           style="fill:#dadada;fill-opacity:1;fill-rule:nonzero;stroke:none"
           id="path552" />
      </g>
      <g
         id="g554"
         transform="translate(387.6872,434.1149)">
        <path
           d="m 0,0 h 0.006 z m 23.173,9.19 c -0.259,0 -0.518,-0.051 -0.765,-0.154 L 0.102,-0.245 c -0.163,-0.067 -0.175,-0.218 -0.175,-0.263 -0.001,-0.044 0.012,-0.195 0.175,-0.263 l 14.123,-5.914 c 0.524,-0.22 1.045,-0.214 1.59,0.022 L 37.311,2.28 c 0.719,0.3 0.911,0.601 0.911,0.732 0,0.053 -0.039,0.097 -0.113,0.128 L 23.937,9.036 C 23.69,9.139 23.431,9.19 23.173,9.19 M 14.987,-7.375 c -0.325,0 -0.648,0.067 -0.967,0.201 L -0.104,-1.26 c -0.308,0.129 -0.501,0.417 -0.5,0.753 0,0.335 0.193,0.624 0.502,0.752 l 22.307,9.281 c 0.623,0.259 1.31,0.259 1.935,0 L 38.313,3.63 c 0.275,-0.115 0.439,-0.346 0.439,-0.618 0,-0.264 -0.161,-0.773 -1.238,-1.222 L 16.022,-7.151 C 15.678,-7.3 15.332,-7.375 14.987,-7.375"
           style="fill:#41404d;fill-opacity:1;fill-rule:nonzero;stroke:none"
           id="path556" />
      </g>
      <g
         id="g558"
         transform="translate(387.6872,436.5715)">
        <path
           d="m 0,0 22.307,9.281 c 0.554,0.23 1.177,0.23 1.732,0 L 38.211,3.384 c 0.453,-0.188 0.453,-0.828 0,-1.016 l -22.353,-9.3 c -0.555,-0.231 -1.18,-0.231 -1.735,0.002 L -0.001,-1.016 C -0.453,-0.827 -0.452,-0.187 0,0"
           style="fill:#f4c151;fill-opacity:1;fill-rule:nonzero;stroke:none"
           id="path560" />
      </g>
      <g
         id="g562"
         transform="translate(387.6872,436.5715)">
        <path
           d="m 0,0 h 0.006 z m 23.173,9.189 c -0.259,0 -0.518,-0.051 -0.765,-0.153 L 0.102,-0.245 c -0.163,-0.067 -0.175,-0.218 -0.175,-0.263 -0.001,-0.044 0.011,-0.195 0.175,-0.263 l 14.123,-5.914 c 0.494,-0.208 1.038,-0.207 1.532,-0.002 l 22.352,9.3 c 0.163,0.068 0.176,0.218 0.176,0.263 0,0.045 -0.013,0.195 -0.176,0.263 L 23.937,9.036 C 23.69,9.138 23.431,9.189 23.173,9.189 m -8.18,-16.56 c -0.33,0 -0.66,0.065 -0.973,0.197 l -14.124,5.913 c -0.309,0.13 -0.501,0.419 -0.5,0.754 0,0.336 0.193,0.624 0.502,0.752 l 22.307,9.281 c 0.623,0.258 1.31,0.259 1.935,0 L 38.313,3.629 c 0.31,-0.129 0.502,-0.418 0.502,-0.753 0,-0.335 -0.192,-0.624 -0.502,-0.753 l -22.353,-9.3 c -0.312,-0.13 -0.64,-0.194 -0.967,-0.194"
           style="fill:#41404d;fill-opacity:1;fill-rule:nonzero;stroke:none"
           id="path564" />
      </g>
      <g
         id="g566"
         transform="translate(401.5612,436.4211)">
        <path
           d="m 0,0 c 0,-0.95 -1.681,-1.72 -3.755,-1.72 -2.073,0 -3.754,0.77 -3.754,1.72 0,0.95 1.681,1.72 3.754,1.72 C -1.681,1.72 0,0.95 0,0"
           style="fill:#ffffff;fill-opacity:1;fill-rule:nonzero;stroke:none"
           id="path568" />
      </g>
      <g
         id="g570"
         transform="translate(397.8069,437.8757)">
        <path
           d="m 0,0 c -2.056,0 -3.489,-0.767 -3.489,-1.455 0,-0.688 1.433,-1.455 3.489,-1.455 2.056,0 3.488,0.767 3.488,1.455 C 3.488,-0.767 2.056,0 0,0 m 0,-3.44 c -2.254,0 -4.02,0.872 -4.02,1.985 0,1.114 1.766,1.986 4.02,1.986 2.254,0 4.019,-0.872 4.019,-1.986 C 4.019,-2.568 2.254,-3.44 0,-3.44"
           style="fill:#41404d;fill-opacity:1;fill-rule:nonzero;stroke:none"
           id="path572" />
      </g>
      <g
         id="g574"
         transform="translate(409.1462,437.3093)">
        <path
           d="M 0,0 -1.952,-0.822"
           style="fill:#f4c151;fill-opacity:1;fill-rule:nonzero;stroke:none"
           id="path576" />
      </g>
      <g
         id="g578"
         transform="translate(407.1941,436.2219)">
        <path
           d="m 0,0 c -0.104,0 -0.202,0.061 -0.245,0.162 -0.057,0.135 0.007,0.291 0.142,0.348 L 1.85,1.332 C 1.984,1.387 2.14,1.325 2.197,1.19 2.254,1.055 2.19,0.9 2.055,0.843 L 0.103,0.021 C 0.069,0.006 0.034,0 0,0"
           style="fill:#41404d;fill-opacity:1;fill-rule:nonzero;stroke:none"
           id="path580" />
      </g>
      <g
         id="g582"
         transform="translate(416.7688,442.4001)">
        <path
           d="M 0,0 -3.118,-1.313"
           style="fill:#f4c151;fill-opacity:1;fill-rule:nonzero;stroke:none"
           id="path584" />
      </g>
      <g
         id="g586"
         transform="translate(413.6501,440.8215)">
        <path
           d="m 0,0 c -0.104,0 -0.202,0.061 -0.245,0.162 -0.057,0.135 0.007,0.291 0.142,0.348 L 3.016,1.823 C 3.149,1.879 3.306,1.816 3.363,1.682 3.42,1.547 3.356,1.391 3.221,1.334 L 0.103,0.021 C 0.069,0.007 0.034,0 0,0"
           style="fill:#41404d;fill-opacity:1;fill-rule:nonzero;stroke:none"
           id="path588" />
      </g>
      <g
         id="g590"
         transform="translate(418.99,441.3991)">
        <path
           d="M 0,0 -8.147,-3.4"
           style="fill:#f4c151;fill-opacity:1;fill-rule:nonzero;stroke:none"
           id="path592" />
      </g>
      <g
         id="g594"
         transform="translate(410.843,437.7336)">
        <path
           d="m 0,0 c -0.104,0 -0.202,0.062 -0.245,0.164 -0.057,0.134 0.008,0.29 0.142,0.346 L 8.045,3.911 C 8.183,3.964 8.335,3.903 8.392,3.768 8.449,3.632 8.385,3.477 8.25,3.421 L 0.103,0.021 C 0.068,0.007 0.034,0 0,0"
           style="fill:#41404d;fill-opacity:1;fill-rule:nonzero;stroke:none"
           id="path596" />
      </g>
      <g
         id="g598"
         transform="translate(411.3625,436.3581)">
        <path
           d="M 0,0 -1.821,-0.768"
           style="fill:#f4c151;fill-opacity:1;fill-rule:nonzero;stroke:none"
           id="path600" />
      </g>
      <g
         id="g602"
         transform="translate(409.5412,435.3254)">
        <path
           d="m 0,0 c -0.104,0 -0.202,0.061 -0.245,0.162 -0.057,0.135 0.007,0.291 0.142,0.348 L 1.718,1.277 C 1.853,1.333 2.009,1.27 2.065,1.136 2.122,1 2.059,0.845 1.923,0.788 L 0.103,0.021 C 0.069,0.007 0.034,0 0,0"
           style="fill:#41404d;fill-opacity:1;fill-rule:nonzero;stroke:none"
           id="path604" />
      </g>
      <g
         id="g606"
         transform="translate(421.2063,440.4474)">
        <path
           d="M 0,0 -8.147,-3.4"
           style="fill:#f4c151;fill-opacity:1;fill-rule:nonzero;stroke:none"
           id="path608" />
      </g>
      <g
         id="g610"
         transform="translate(413.0583,436.7824)">
        <path
           d="m 0,0 c -0.104,0 -0.202,0.061 -0.245,0.163 -0.056,0.135 0.008,0.291 0.142,0.347 l 8.149,3.4 C 8.185,3.963 8.337,3.903 8.393,3.767 8.45,3.632 8.386,3.476 8.251,3.42 L 0.103,0.02 C 0.068,0.007 0.034,0 0,0"
           style="fill:#41404d;fill-opacity:1;fill-rule:nonzero;stroke:none"
           id="path612" />
      </g>
      <g
         id="g614"
         transform="translate(442.2326,428.4977)">
        <path
           d="m 0,0 0.884,-1.496 c 0.331,-0.561 0.09,-1.286 -0.512,-1.538 l -14.061,-5.864 c -0.495,-0.206 -1.066,-0.017 -1.339,0.445 L -27.919,13.37 c -0.332,0.561 -0.091,1.286 0.511,1.537 l 14.062,5.865 c 0.494,0.207 1.066,0.017 1.338,-0.445 l 4.556,-7.712"
           style="fill:#f4c151;fill-opacity:1;fill-rule:nonzero;stroke:none"
           id="path616" />
      </g>
      <g
         id="g618"
         transform="translate(428.1335,419.2521)">
        <path
           d="M 0,0 C -0.462,0 -0.91,0.24 -1.156,0.657 L -14.048,22.48 c -0.198,0.334 -0.241,0.736 -0.119,1.104 0.123,0.368 0.399,0.665 0.755,0.814 L 0.65,30.263 c 0.617,0.253 1.331,0.018 1.669,-0.555 L 6.875,21.995 C 6.95,21.869 6.908,21.706 6.782,21.631 6.656,21.557 6.493,21.599 6.419,21.725 l -4.556,7.713 c -0.205,0.347 -0.641,0.488 -1.009,0.335 l -14.061,-5.865 c -0.216,-0.09 -0.382,-0.269 -0.456,-0.491 -0.073,-0.222 -0.047,-0.466 0.071,-0.667 L -0.7,0.927 c 0.205,-0.346 0.635,-0.49 1.007,-0.335 l 14.062,5.865 c 0.216,0.09 0.383,0.269 0.457,0.491 0.073,0.222 0.048,0.466 -0.071,0.667 L 13.871,9.11 c -0.075,0.127 -0.033,0.289 0.093,0.364 0.125,0.073 0.288,0.033 0.363,-0.093 L 15.211,7.885 C 15.409,7.551 15.452,7.148 15.329,6.781 15.207,6.413 14.931,6.116 14.573,5.967 L 0.512,0.103 C 0.345,0.033 0.172,0 0,0"
           style="fill:#41404d;fill-opacity:1;fill-rule:nonzero;stroke:none"
           id="path620" />
      </g>
      <g
         id="g622"
         transform="translate(431.1487,441.7868)">
        <path
           d="m 0,0 c -0.612,-1.398 -2.542,-1.904 -4.309,-1.13 -1.767,0.775 -2.703,2.535 -2.091,3.933 0.612,1.398 2.542,1.904 4.309,1.13 C -0.324,3.159 0.612,1.398 0,0"
           style="fill:#ffffff;fill-opacity:1;fill-rule:nonzero;stroke:none"
           id="path624" />
      </g>
      <g
         id="g626"
         transform="translate(427.3728,445.8181)">
        <path
           d="m 0,0 c -0.286,0 -0.566,-0.035 -0.835,-0.105 -0.734,-0.192 -1.283,-0.629 -1.546,-1.229 -0.263,-0.601 -0.212,-1.3 0.145,-1.97 0.367,-0.69 1.009,-1.264 1.81,-1.614 0.801,-0.35 1.655,-0.435 2.413,-0.236 0.734,0.192 1.283,0.629 1.546,1.229 0.262,0.6 0.212,1.3 -0.145,1.969 -0.367,0.69 -1.01,1.264 -1.81,1.614 C 1.062,-0.116 0.521,0 0,0 m 1.151,-5.79 c -0.593,0 -1.207,0.131 -1.79,0.386 -0.909,0.399 -1.643,1.055 -2.066,1.851 -0.434,0.816 -0.491,1.679 -0.161,2.431 0.328,0.752 1.002,1.295 1.896,1.53 C -0.099,0.636 0.882,0.542 1.791,0.145 2.7,-0.254 3.434,-0.911 3.856,-1.707 4.291,-2.522 4.348,-3.386 4.018,-4.138 3.689,-4.89 3.016,-5.433 2.122,-5.667 1.81,-5.749 1.483,-5.79 1.151,-5.79"
           style="fill:#41404d;fill-opacity:1;fill-rule:nonzero;stroke:none"
           id="path628" />
      </g>
      <g
         id="g630"
         transform="translate(430.8459,422.7809)">
        <path
           d="M 0,0 C -0.09,0 -0.18,0.046 -0.228,0.13 L -4.71,7.718 c -0.075,0.126 -0.033,0.289 0.093,0.364 0.126,0.073 0.29,0.032 0.363,-0.094 L 0.228,0.4 C 0.302,0.274 0.261,0.111 0.134,0.037 0.092,0.012 0.045,0 0,0"
           style="fill:#41404d;fill-opacity:1;fill-rule:nonzero;stroke:none"
           id="path632" />
      </g>
      <g
         id="g634"
         transform="translate(425.5876,431.7951)">
        <path
           d="m 0,0 c -0.088,0 -0.175,0.044 -0.225,0.125 l -1.322,2.126 c -0.078,0.124 -0.04,0.288 0.085,0.365 0.123,0.077 0.289,0.039 0.364,-0.085 L 0.225,0.405 C 0.302,0.281 0.264,0.118 0.14,0.04 0.096,0.013 0.047,0 0,0"
           style="fill:#41404d;fill-opacity:1;fill-rule:nonzero;stroke:none"
           id="path636" />
      </g>
      <g
         id="g638"
         transform="translate(433.0788,423.6867)">
        <path
           d="m 0,0 c -0.09,0 -0.179,0.046 -0.228,0.13 l -4.483,7.589 c -0.075,0.126 -0.033,0.288 0.093,0.363 0.125,0.074 0.288,0.034 0.363,-0.094 L 0.228,0.4 C 0.303,0.274 0.261,0.111 0.135,0.037 0.092,0.012 0.047,0 0,0"
           style="fill:#41404d;fill-opacity:1;fill-rule:nonzero;stroke:none"
           id="path640" />
      </g>
      <g
         id="g642"
         transform="translate(435.0627,424.4391)">
        <path
           d="M 0,0 C -0.09,0 -0.18,0.047 -0.228,0.131 L -2.83,4.534 c -0.074,0.126 -0.033,0.289 0.094,0.363 0.124,0.074 0.288,0.035 0.362,-0.093 L 0.228,0.4 C 0.302,0.274 0.261,0.112 0.134,0.037 0.092,0.012 0.046,0 0,0"
           style="fill:#41404d;fill-opacity:1;fill-rule:nonzero;stroke:none"
           id="path644" />
      </g>
      <g
         id="g646"
         transform="translate(427.8195,432.7009)">
        <path
           d="m 0,0 c -0.088,0 -0.175,0.044 -0.225,0.125 l -1.321,2.126 c -0.078,0.124 -0.039,0.288 0.085,0.365 0.124,0.077 0.288,0.039 0.365,-0.085 L 0.225,0.405 C 0.303,0.281 0.264,0.117 0.14,0.04 0.097,0.013 0.048,0 0,0"
           style="fill:#41404d;fill-opacity:1;fill-rule:nonzero;stroke:none"
           id="path648" />
      </g>
      <g
         id="g650"
         transform="translate(438.0969,435.2346)">
        <path
           d="M 0,0 C -0.09,0 -0.179,0.047 -0.228,0.131 L -2.59,4.128 c -0.075,0.125 -0.033,0.289 0.093,0.363 0.125,0.073 0.289,0.033 0.363,-0.094 L 0.228,0.4 C 0.303,0.274 0.261,0.111 0.135,0.037 0.092,0.012 0.046,0 0,0"
           style="fill:#41404d;fill-opacity:1;fill-rule:nonzero;stroke:none"
           id="path652" />
      </g>
    </g>
  </g>
</svg>
